Patient4_TMGait_0pt6_02_right_09_GRF.mot
version=1
nRows=26
nColumns=19
inDegrees=no
endheader
time	F1x	F1y	F1z	M1x	M1y	M1z	F2x	F2y	F2z	M2x	M2y	M2z	EC1x	EC1y	EC1z	EC2x	EC2y	EC2z
10.32	-30.9607	746.2271	78.9727	-231.4252	-85.8572	777.8238	8.4365	-6.6271	6.2982	-3.1933	-8.9239	-9.8375	-0.0592	0.0182	-0.0073	-0.0462	0.0165	0.9585
10.3328	-21.7274	743.2745	70.9741	-231.9115	-75.3479	766.519	5.1788	-3.5288	4.1272	-1.7177	-5.7299	-5.4209	-0.0592	0.0182	-0.0073	-0.0462	0.0165	0.9585
10.3456	-12.888	741.4471	64.1265	-232.6988	-65.9195	756.1485	2.5727	-0.95322	2.3433	-0.49694	-3.1206	-1.7884	-0.0592	0.0182	-0.0073	-0.0462	0.0165	0.9585
10.3584	-4.8044	740.829	58.7603	-233.7362	-58.0078	747.1839	0.71621	0.98024	1.0212	0.41805	-1.2037	0.90364	-0.0592	0.0182	-0.0073	-0.0462	0.0165	0.9585
10.3711	2.3842	741.1623	54.9813	-234.898	-51.7701	739.6093	-0.5172	2.3354	0.1366	1.0496	0.079368	2.7857	-0.0592	0.0182	-0.0073	-0.0462	0.0165	0.9585
10.3839	8.7077	742.0095	52.6295	-236.0261	-47.0764	733.0929	-1.1986	3.1663	-0.38644	1.4329	0.83063	3.9243	-0.0592	0.0182	-0.0073	-0.0462	0.0165	0.9585
10.3967	14.1953	742.8693	51.5621	-236.9553	-43.8044	727.1822	-1.534	3.6095	-0.64293	1.6236	1.2027	4.5535	-0.0592	0.0182	-0.0073	-0.0462	0.0165	0.9585
10.4095	18.8819	743.2992	51.4897	-237.5555	-41.6958	721.4315	-1.5973	3.6935	-0.72262	1.6486	1.3119	4.7131	-0.0592	0.0182	-0.0073	-0.0462	0.0165	0.9585
10.4223	22.7904	742.9957	52.1969	-237.7459	-40.5555	715.5088	-1.539	3.4586	-0.70147	1.5276	1.2753	4.4882	-0.0592	0.0182	-0.0073	-0.0462	0.0165	0.9585
10.4351	25.9427	741.8405	53.3866	-237.513	-40.1139	709.2428	-1.4067	2.872	-0.63296	1.2524	1.1619	3.8266	-0.0592	0.0182	-0.0073	-0.0462	0.0165	0.9585
10.4479	28.3816	739.9079	54.8639	-236.91	-40.185	702.6397	-1.2426	1.8846	-0.561	0.80105	1.0276	2.6762	-0.0592	0.0182	-0.0073	-0.0462	0.0165	0.9585
10.4606	30.1867	737.4933	56.4059	-236.0601	-40.5443	695.9025	-1.0771	0.4463	-0.50147	0.14921	0.89497	0.98685	-0.0592	0.0182	-0.0073	-0.0462	0.0165	0.9585
10.4734	31.4781	735.0227	57.9075	-235.1223	-41.0611	689.3703	-0.8715	-1.4932	-0.4685	-0.72115	0.76697	-1.3203	-0.0592	0.0182	-0.0073	-0.0462	0.0165	0.9585
10.4862	32.4187	733.0094	59.2463	-234.2745	-41.57	683.462	-0.64321	-3.8549	-0.45029	-1.7802	0.63488	-4.1315	-0.0592	0.0182	-0.0073	-0.0462	0.0165	0.9585
10.499	33.1938	731.9679	60.4028	-233.6808	-41.9892	678.608	-0.30836	-6.4671	-0.44138	-2.9428	0.46908	-7.2604	-0.0592	0.0182	-0.0073	-0.0462	0.0165	0.9585
10.5118	34.0252	732.2978	61.3463	-233.4598	-42.2075	675.1332	0.10877	-8.8481	-0.41659	-3.9991	0.24464	-10.1053	-0.0592	0.0182	-0.0073	-0.0462	0.0165	0.9585
10.5246	35.1409	734.1774	62.1303	-233.6542	-42.1929	673.1638	0.67018	-10.245	-0.35659	-4.605	-0.075802	-11.8037	-0.0592	0.0182	-0.0073	-0.0462	0.0165	0.9585
10.5374	36.7398	737.5056	62.7585	-234.2193	-41.8718	672.5726	1.3186	-9.4427	-0.22122	-4.2191	-0.51223	-10.9195	-0.0592	0.0182	-0.0073	-0.0462	0.0165	0.9585
10.5501	39.017	741.8653	63.2812	-235.0199	-41.2234	672.9552	2.0139	-4.8106	0.020681	-2.1041	-1.0663	-5.5681	-0.0592	0.0182	-0.0073	-0.0462	0.0165	0.9585
10.5629	42.0782	746.5652	63.6701	-235.8536	-40.1787	673.6857	2.6056	5.7257	0.41108	2.6698	-1.7046	6.6581	-0.0592	0.0182	-0.0073	-0.0462	0.0165	0.9585
10.5757	45.9897	750.6238	63.9129	-236.4477	-38.7065	673.8819	2.8432	24.4665	0.96595	11.1343	-2.3177	28.4302	-0.0592	0.0182	-0.0073	-0.0462	0.0165	0.9585
10.5885	50.6613	752.7528	63.8841	-236.4514	-36.7211	672.4414	2.3868	53.5222	1.682	24.2371	-2.7238	62.1836	-0.0592	0.0182	-0.0073	-0.0462	0.0165	0.9585
10.6013	55.9067	751.2405	63.4506	-235.3885	-34.1846	667.904	0.71649	94.1575	2.5006	42.5354	-2.6129	109.3953	-0.0592	0.0182	-0.0073	-0.0462	0.0165	0.9585
10.6141	61.3123	743.9404	62.3776	-232.6438	-31.0451	658.4644	-2.8327	145.7327	3.3066	65.7352	-1.543	169.2866	-0.0592	0.0182	-0.0073	-0.0462	0.0165	0.9585
10.6269	66.2942	728.4094	60.446	-227.4857	-27.351	642.0709	-9.1513	204.5412	3.9391	92.1484	1.0353	237.5614	-0.0592	0.0182	-0.0073	-0.0462	0.0165	0.9585
10.6396	70.0396	702.2438	57.4143	-219.157	-23.2228	616.686	-18.0264	263.3954	3.7836	118.5265	5.6581	305.8392	-0.0592	0.0182	-0.0073	-0.0462	0.0165	0.9585
